<?xml version="1.0" encoding="UTF-8"?>
<svg width="286px" height="286px" viewBox="0 0 286 286" version="1.1" xmlns="http://www.w3.org/2000/svg" xmlns:xlink="http://www.w3.org/1999/xlink">
    <!-- Generator: Sketch 48.2 (47327) - http://www.bohemiancoding.com/sketch -->
    <title>youtube</title>
    <desc>Created with Sketch.</desc>
    <defs></defs>
    <g id="Page-1" stroke="none" stroke-width="1" fill="none" fill-rule="evenodd">
        <g id="youtube">
            <g id="Group-3" transform="translate(12.000000, 10.000000)" fill="#FF0000">
                <circle id="Oval" cx="134" cy="134" r="134"></circle>
            </g>
            <g id="YouTube_Logo_2017" transform="translate(75.000000, 94.000000)" fill-rule="nonzero">
                <g id="Group">
                    <path d="M138.391803,15.6470588 C136.762295,9.52941176 131.990164,4.70588235 125.937705,3.05882353 C114.880328,0 70.6508197,0 70.6508197,0 C70.6508197,0 26.4213115,0 15.3639344,2.94117647 C9.42786885,4.58823529 4.53934426,9.52941176 2.90983607,15.6470588 C0,26.8235294 0,50 0,50 C0,50 0,73.2941176 2.90983607,84.3529412 C4.53934426,90.4705882 9.31147541,95.2941176 15.3639344,96.9411765 C26.5377049,100 70.6508197,100 70.6508197,100 C70.6508197,100 114.880328,100 125.937705,97.0588235 C131.990164,95.4117647 136.762295,90.5882353 138.391803,84.4705882 C141.301639,73.2941176 141.301639,50.1176471 141.301639,50.1176471 C141.301639,50.1176471 141.418033,26.8235294 138.391803,15.6470588 Z" id="Shape" fill="#FFFFFF"></path>
                    <polygon id="Shape" fill="#FF0000" points="56.5672131 71.4117647 93.347541 50 56.5672131 28.5882353"></polygon>
                </g>
            </g>
        </g>
    </g>
</svg>